HIERARCHY
ROOT Hips
{
	OFFSET -0.001795 -0.223333 0.028219
	CHANNELS 6 Xposition Yposition Zposition Zrotation Yrotation Xrotation 
	JOINT LeftUpLeg
	{
		OFFSET 0.069520 -0.091406 -0.006815
		CHANNELS 3 Zrotation Yrotation Xrotation
		JOINT LeftLeg
		{
			OFFSET 0.034277 -0.375199 -0.004496
			CHANNELS 3 Zrotation Yrotation Xrotation
			JOINT LeftFoot
			{
				OFFSET -0.013596 -0.397961 -0.043693
				CHANNELS 3 Zrotation Yrotation Xrotation
				JOINT LeftToe
				{
					OFFSET 0.026358 -0.055791 0.119288
					CHANNELS 3 Zrotation Yrotation Xrotation
					End Site
					{
						OFFSET 0.000000 0.000000 0.000000
					}
				}
			}
		}
	}
	JOINT RightUpLeg
	{
		OFFSET -0.067670 -0.090522 -0.004320
		CHANNELS 3 Zrotation Yrotation Xrotation
		JOINT RightLeg
		{
			OFFSET -0.038290 -0.382569 -0.008850
			CHANNELS 3 Zrotation Yrotation Xrotation
			JOINT RightFoot
			{
				OFFSET 0.015774 -0.398415 -0.042312
				CHANNELS 3 Zrotation Yrotation Xrotation
				JOINT RightToe
				{
					OFFSET -0.025372 -0.048144 0.123348
					CHANNELS 3 Zrotation Yrotation Xrotation
					End Site
					{
						OFFSET 0.000000 0.000000 0.000000
					}
				}
			}
		}
	}
	JOINT Spine
	{
		OFFSET -0.002533 0.108963 -0.026696
		CHANNELS 3 Zrotation Yrotation Xrotation
		JOINT Spine1
		{
			OFFSET 0.005487 0.135180 0.001092
			CHANNELS 3 Zrotation Yrotation Xrotation
			JOINT Spine2
			{
				OFFSET 0.001457 0.052922 0.025425
				CHANNELS 3 Zrotation Yrotation Xrotation
				JOINT Neck
				{
					OFFSET -0.002778 0.213870 -0.042857
					CHANNELS 3 Zrotation Yrotation Xrotation
					JOINT Head
					{
						OFFSET 0.005152 0.064970 0.051349
						CHANNELS 3 Zrotation Yrotation Xrotation
						End Site
						{
							OFFSET 0.000000 0.000000 0.000000
						}
					}
				}
				JOINT LeftShoulder
				{
					OFFSET 0.078845 0.121749 -0.034090
					CHANNELS 3 Zrotation Yrotation Xrotation
					JOINT LeftArm
					{
						OFFSET 0.090977 0.030469 -0.008868
						CHANNELS 3 Zrotation Yrotation Xrotation
						JOINT LeftForeArm
						{
							OFFSET 0.259612 -0.012772 -0.027456
							CHANNELS 3 Zrotation Yrotation Xrotation
							JOINT LeftHand
							{
								OFFSET 0.249234 0.008986 -0.001171
								CHANNELS 3 Zrotation Yrotation Xrotation
								End Site
								{
									OFFSET 0.000000 0.000000 0.000000
								}
							}
						}
					}
				}
				JOINT RightShoulder
				{
					OFFSET -0.081759 0.118833 -0.038615
					CHANNELS 3 Zrotation Yrotation Xrotation
					JOINT RightArm
					{
						OFFSET -0.096012 0.032551 -0.009143
						CHANNELS 3 Zrotation Yrotation Xrotation
						JOINT RightForeArm
						{
							OFFSET -0.253742 -0.013329 -0.021401
							CHANNELS 3 Zrotation Yrotation Xrotation
							JOINT RightHand
							{
								OFFSET -0.255298 0.007772 -0.005559
								CHANNELS 3 Zrotation Yrotation Xrotation
								End Site
								{
									OFFSET 0.000000 0.000000 0.000000
								}
							}
						}
					}
				}
			}
		}
	}
}
MOTION
Frames: 17
Frame Time: 0.050000
0.000000 0.133876 0.000000 -3.249659 2.911518 -81.809727 1.349363 -0.158282 -4.406362 -4.603346 0.579033 -3.155508 -3.379953 6.876317 30.126384 0.000000 0.000000 0.000000 -0.397938 0.094172 -1.883272 -2.463799 0.053972 -5.464552 2.287516 -6.525862 34.315850 0.000000 0.000000 0.000000 -1.130176 0.441244 -36.370019 0.007477 -0.985545 15.992559 1.903532 0.844306 21.466434 2.714856 -3.664175 9.387236 0.000000 0.000000 0.000000 -14.817992 -1.715494 -0.388753 -47.530931 18.353901 -14.539124 -22.648015 -25.526243 5.746278 0.000000 0.000000 0.000000 12.593256 -5.134301 -2.850774 46.146383 -14.700201 -11.774220 19.341038 23.425799 4.440399 0.000000 0.000000 0.000000 
-0.001046 0.122962 0.000307 -4.317785 3.518980 -78.222533 0.687096 -0.442885 -6.147214 -4.263438 0.381604 -9.091622 -5.562495 5.902577 34.274891 0.000000 0.000000 0.000000 -1.360785 0.064799 -3.254577 -1.485692 -0.434712 -11.423568 0.405761 -9.450759 39.477962 0.000000 0.000000 0.000000 -3.825731 -1.535514 -41.696279 0.516009 -1.643916 19.053966 3.740057 1.774799 23.741707 0.297542 -0.323322 2.863352 0.000000 0.000000 0.000000 -16.404219 -1.936981 -0.412320 -47.716073 12.870069 -13.131965 -21.029504 -27.658955 6.079441 0.000000 0.000000 0.000000 16.282194 -2.481644 -1.241425 43.492312 -14.567323 -11.458057 18.281811 27.588803 5.077537 0.000000 0.000000 0.000000 
-0.001085 0.119595 -0.000036 -2.956547 1.795336 -78.999652 -0.268361 -0.376215 -3.251613 -0.139577 0.300442 -13.458586 -4.393421 6.282515 33.285193 0.000000 0.000000 0.000000 -1.127034 0.114860 -3.169625 2.635604 -0.608157 -11.418041 -2.921633 -13.984146 43.534803 0.000000 0.000000 0.000000 1.174950 2.135856 -36.711519 -2.317330 0.544878 18.793641 1.082766 1.506734 19.770976 2.001301 -2.181936 4.457415 0.000000 0.000000 0.000000 -12.661525 -5.150178 1.317614 -50.471163 11.013262 -12.787198 -17.568914 -27.977623 5.186516 0.000000 0.000000 0.000000 18.771325 -4.303438 -2.308138 44.130430 -15.990033 -11.524884 17.110072 29.704480 5.506273 0.000000 0.000000 0.000000 
-0.001452 0.118044 -0.000954 -1.954540 0.781532 -79.282873 1.603232 -0.001719 -3.172812 -0.632075 0.316299 -12.920968 -5.400871 6.114522 37.001756 0.000000 0.000000 0.000000 0.302333 0.261118 -1.991740 3.181971 -0.639660 -12.768950 -1.649134 -12.953950 43.051550 0.000000 0.000000 0.000000 3.772188 4.084923 -37.056011 -4.030476 1.897768 17.511638 0.913103 0.545213 20.738733 4.141536 -3.014878 -3.474797 0.000000 0.000000 0.000000 -9.323397 -3.300807 0.643101 -55.574318 8.513640 -13.397337 -15.788243 -26.161247 4.535429 0.000000 0.000000 0.000000 17.705709 -2.532504 -1.216754 44.317755 -13.748606 -10.898306 14.775908 26.551900 4.307788 0.000000 0.000000 0.000000 
-0.001833 0.117261 -0.001444 -2.112337 0.323905 -79.524210 1.447113 0.072321 -1.840273 -1.055330 0.339773 -14.503918 -4.252806 6.841657 35.587715 0.000000 0.000000 0.000000 1.094393 0.405728 -1.901191 3.383540 -0.639996 -12.426142 -3.074204 -14.064878 40.143866 0.000000 0.000000 0.000000 3.938323 4.205925 -36.256388 -4.330246 2.144145 16.834450 1.308483 -0.452681 18.595304 5.131804 -4.290056 -0.785502 0.000000 0.000000 0.000000 -11.571936 -4.799546 1.478954 -52.807062 9.774447 -12.689983 -13.199086 -27.004686 4.062080 0.000000 0.000000 0.000000 17.890476 -2.082463 -1.298300 46.481218 -14.795777 -11.453210 10.614619 27.204977 3.467900 0.000000 0.000000 0.000000 
-0.002066 0.116077 -0.002078 -2.830700 0.052584 -78.798937 2.310706 0.121481 -3.477861 -0.962004 0.325810 -11.779946 -5.002016 5.408157 32.905224 0.000000 0.000000 0.000000 0.868566 0.419800 -2.346234 4.195397 -0.655611 -12.977342 -4.585158 -15.534575 38.886214 0.000000 0.000000 0.000000 3.089426 3.655940 -38.160747 -2.854564 1.130565 15.775025 0.534890 -0.275571 21.126212 3.524458 -2.796403 -2.399880 0.000000 0.000000 0.000000 -10.373522 -3.488412 0.968039 -53.629255 8.954235 -12.952355 -14.289113 -26.754512 4.330164 0.000000 0.000000 0.000000 19.934639 -2.173292 -1.512484 46.097198 -12.345819 -10.980763 9.186242 26.027183 2.992080 0.000000 0.000000 0.000000 
-0.002113 0.115851 -0.002628 -2.780308 0.203136 -78.877285 2.195202 0.108302 -3.335762 -1.180988 0.334065 -11.520274 -3.763998 6.297703 31.319259 0.000000 0.000000 0.000000 0.817716 0.401489 -2.280720 4.570575 -0.662105 -12.612341 -5.250999 -16.183183 38.086209 0.000000 0.000000 0.000000 3.278901 3.671828 -37.549809 -3.518683 1.611674 13.733526 0.392009 -0.509799 22.705745 4.373283 -3.251265 -4.625361 0.000000 0.000000 0.000000 -9.173126 -3.530724 1.069216 -54.368697 8.261581 -13.042577 -13.471285 -27.511374 4.257264 0.000000 0.000000 0.000000 18.943825 -2.205571 -1.487945 47.908596 -11.278319 -11.193066 7.611595 25.207482 2.571356 0.000000 0.000000 0.000000 
-0.002229 0.115570 -0.003197 -2.867933 0.242475 -78.824443 2.557015 0.142000 -3.822934 -1.343038 0.331982 -10.442220 -3.949011 5.726964 29.883742 0.000000 0.000000 0.000000 0.758647 0.422865 -2.560909 4.616655 -0.659363 -12.577947 -5.732884 -16.642816 37.686458 0.000000 0.000000 0.000000 3.188172 3.554480 -37.380938 -3.233557 1.449930 12.025808 -0.004489 -0.400077 24.191680 4.047203 -2.890050 -5.480486 0.000000 0.000000 0.000000 -8.159456 -3.252802 0.974831 -55.120606 7.043267 -12.921957 -13.204085 -26.860537 4.106696 0.000000 0.000000 0.000000 18.771370 -2.248597 -1.461208 48.924583 -9.796132 -11.102059 5.780079 24.008367 2.090653 0.000000 0.000000 0.000000 
-0.002304 0.114468 -0.003683 -2.938910 0.398878 -79.032582 2.821939 0.205780 -3.609266 -1.985816 0.352797 -10.531837 -3.688400 6.045387 29.760703 0.000000 0.000000 0.000000 0.435545 0.331623 -2.295311 5.040073 -0.675603 -12.776604 -5.688339 -16.606531 37.737192 0.000000 0.000000 0.000000 2.966842 3.385017 -37.440458 -3.105062 1.379351 10.953373 -0.005919 -0.519945 25.038507 3.856882 -2.646575 -6.250167 0.000000 0.000000 0.000000 -8.599944 -3.552103 1.137214 -54.977539 6.741929 -12.840220 -12.534920 -27.097042 3.982045 0.000000 0.000000 0.000000 17.477246 -2.489131 -1.585963 50.691966 -9.666332 -11.505575 5.200037 24.009101 1.980874 0.000000 0.000000 0.000000 
-0.002462 0.111879 -0.004284 -3.162132 0.419557 -79.478394 3.067612 0.273652 -3.335848 -2.557217 0.368659 -10.510144 -3.564830 6.116441 29.285710 0.000000 0.000000 0.000000 0.288320 0.244879 -1.765059 4.963682 -0.680352 -13.072756 -5.384697 -16.309852 38.207116 0.000000 0.000000 0.000000 2.740563 3.207894 -37.039718 -3.085837 1.392145 9.195801 0.149404 -0.708808 26.946114 3.930407 -2.575861 -7.637125 0.000000 0.000000 0.000000 -8.182391 -3.657303 1.246011 -55.967021 6.449943 -13.208874 -12.541000 -27.653179 4.084293 0.000000 0.000000 0.000000 16.526935 -3.120183 -1.933799 51.456465 -9.428259 -11.775985 5.431241 23.574652 1.973840 0.000000 0.000000 0.000000 
-0.002632 0.111221 -0.004996 -3.159515 0.494627 -79.882395 3.541244 0.376256 -3.185292 -3.225744 0.393863 -10.134915 -3.565141 6.529124 30.545195 0.000000 0.000000 0.000000 -0.014204 0.196030 -1.823774 4.727208 -0.672048 -12.329236 -4.912263 -15.881097 39.249191 0.000000 0.000000 0.000000 2.557928 3.066058 -36.489005 -2.882882 1.279393 8.944813 -0.012892 -0.573617 27.177246 3.933323 -2.497665 -8.150138 0.000000 0.000000 0.000000 -8.155241 -4.038293 1.414924 -55.960475 5.946895 -13.028866 -12.759256 -27.451554 4.100948 0.000000 0.000000 0.000000 16.505863 -3.193158 -1.949024 51.144609 -9.294357 -11.677604 5.967392 23.457906 2.056576 0.000000 0.000000 0.000000 
-0.002766 0.109783 -0.005594 -3.126318 0.639706 -80.172060 3.662197 0.392627 -3.337145 -3.549217 0.413073 -9.577470 -3.550555 6.843459 31.565166 0.000000 0.000000 0.000000 -0.515717 0.103507 -1.837433 4.695389 -0.667773 -11.933115 -5.161220 -16.217943 40.208126 0.000000 0.000000 0.000000 2.336456 2.882587 -36.038325 -2.561555 1.107423 8.175420 -0.268679 -0.521569 27.996339 3.872424 -2.382753 -8.766924 0.000000 0.000000 0.000000 -7.884833 -3.876884 1.353276 -56.555298 5.644846 -13.144792 -13.185586 -27.557193 4.247625 0.000000 0.000000 0.000000 15.961224 -3.496211 -2.112735 50.757522 -9.387680 -11.686708 6.628209 23.720623 2.188327 0.000000 0.000000 0.000000 
-0.002926 0.109860 -0.006146 -3.133678 0.660902 -80.286297 3.822159 0.426927 -3.297019 -4.013485 0.433590 -9.502868 -3.319362 7.166150 31.805786 0.000000 0.000000 0.000000 -0.559207 0.113628 -2.007182 4.436246 -0.654054 -11.452205 -5.531764 -16.593618 40.455217 0.000000 0.000000 0.000000 2.210594 2.791782 -35.961566 -2.350560 0.995412 7.804667 -0.441091 -0.489533 28.081943 3.916503 -2.390333 -8.992205 0.000000 0.000000 0.000000 -7.466977 -3.818859 1.336514 -57.142107 5.880867 -13.385696 -13.743181 -27.499375 4.373146 0.000000 0.000000 0.000000 15.233246 -3.585758 -2.155761 50.781113 -10.174908 -11.940489 7.647551 24.167873 2.403676 0.000000 0.000000 0.000000 
-0.003169 0.109079 -0.006671 -3.053609 0.784040 -80.336526 3.658444 0.398242 -3.242827 -4.039068 0.435472 -9.528642 -2.957572 7.500892 31.641338 0.000000 0.000000 0.000000 -0.696428 0.086144 -2.005509 4.120792 -0.640505 -11.534345 -6.110261 -17.153940 40.396307 0.000000 0.000000 0.000000 2.132940 2.726267 -35.880683 -2.172950 0.900712 7.486970 -0.660471 -0.465644 28.091509 3.659037 -2.202274 -8.830211 0.000000 0.000000 0.000000 -7.296192 -3.245360 1.061612 -57.400357 6.198986 -13.586873 -14.681509 -27.455958 4.606554 0.000000 0.000000 0.000000 14.734162 -3.742877 -2.231374 50.581581 -10.892981 -12.125514 8.252786 24.751747 2.570344 0.000000 0.000000 0.000000 
-0.003476 0.107606 -0.007274 -3.126116 0.792592 -80.486448 3.750810 0.407131 -3.435757 -4.270199 0.450025 -9.149454 -2.928688 7.569375 31.701976 0.000000 0.000000 0.000000 -0.725592 0.090765 -2.106099 3.906565 -0.628983 -11.178111 -6.043117 -17.096590 41.059337 0.000000 0.000000 0.000000 2.057920 2.666532 -35.586387 -2.185720 0.925096 6.876845 -0.642251 -0.446538 28.236464 3.557226 -2.016583 -9.566366 0.000000 0.000000 0.000000 -6.266965 -2.853702 0.887693 -58.469377 6.680741 -14.081557 -15.580033 -27.334688 4.790581 0.000000 0.000000 0.000000 13.457153 -3.963940 -2.290467 51.175789 -11.822193 -12.555404 9.205328 25.029255 2.768514 0.000000 0.000000 0.000000 
-0.003861 0.106598 -0.007964 -3.095864 0.794386 -80.528817 3.459002 0.348686 -3.480897 -3.916378 0.435533 -9.171890 -2.854282 7.805101 32.454808 0.000000 0.000000 0.000000 -0.780250 0.083731 -2.137709 3.836213 -0.624385 -11.080043 -6.396691 -17.458795 41.309062 0.000000 0.000000 0.000000 1.967412 2.617750 -35.606447 -2.223665 0.942973 7.103091 -0.564700 -0.275716 27.669393 3.626398 -2.052206 -9.452980 0.000000 0.000000 0.000000 -5.586322 -2.580746 0.749804 -58.715020 7.093734 -14.260557 -16.448430 -27.449860 5.003179 0.000000 0.000000 0.000000 13.145027 -4.077411 -2.320033 51.122452 -12.669197 -12.761305 9.831341 25.743942 2.980224 0.000000 0.000000 0.000000 
-0.004318 0.105218 -0.008671 -3.115008 0.854261 -80.683739 3.311537 0.317915 -3.534483 -3.889342 0.431150 -9.347308 -2.829212 8.041023 33.322388 0.000000 0.000000 0.000000 -0.697573 0.082696 -1.988134 3.660661 -0.619028 -11.252864 -6.760462 -17.812964 41.795886 0.000000 0.000000 0.000000 1.773321 2.490162 -35.636860 -2.170193 0.925009 6.566667 -0.562968 -0.145793 28.344845 3.166987 -1.611370 -10.076891 0.000000 0.000000 0.000000 -4.408683 -1.827684 0.434185 -59.500671 7.314056 -14.679857 -17.264585 -27.446999 5.196796 0.000000 0.000000 0.000000 12.464922 -4.411648 -2.445654 51.714494 -12.908748 -13.066567 10.621653 25.676129 3.132808 0.000000 0.000000 0.000000 
